<svg aria-hidden="true" style="width:0;height:0;position:absolute;overflow:hidden" xmlns="http://www.w3.org/2000/svg"><defs><symbol id="icon-search" viewBox="0 0 32 32"><path fill="#939393" style="fill:var(--color1,#939393)" d="M4 4c2.613-2.587 6.053-4 9.733-4 3.653 0 7.12 1.413 9.707 4 2.587 2.613 4.027 6.053 4.027 9.733 0 3.36-1.2 6.507-3.387 9.013l7.627 7.627a.934.934 0 0 1 0 1.333c-.187.187-.427.293-.667.293s-.48-.107-.667-.293l-7.627-7.627a13.605 13.605 0 0 1-9.013 3.387c-3.68 0-7.12-1.44-9.733-4.027-2.587-2.587-4-6.053-4-9.707 0-3.68 1.413-7.12 4-9.733zm1.333 18.107c4.64 4.64 12.16 4.64 16.773 0 4.64-4.613 4.64-12.133 0-16.773-2.293-2.32-5.333-3.467-8.373-3.467s-6.08 1.147-8.4 3.467c-4.613 4.64-4.613 12.16 0 16.773z"/></symbol><symbol id="icon-close" viewBox="0 0 32 32"><path fill="#4c00fe" style="fill:var(--color2,#4c00fe)" d="M1.638 32c-.414 0-.847-.169-1.167-.489a1.659 1.659 0 0 1 0-2.334L29.177.471c.64-.64 1.694-.64 2.334 0s.64 1.694 0 2.334L2.805 31.511c-.32.32-.753.489-1.167.489z"/><path fill="#4c00fe" style="fill:var(--color2,#4c00fe)" d="M30.344 32c-.414 0-.847-.169-1.167-.489L.471 2.805c-.64-.64-.64-1.694 0-2.334s1.694-.64 2.334 0l28.706 28.706c.64.64.64 1.694 0 2.334-.32.32-.753.489-1.167.489z"/></symbol><symbol id="icon-Polygon" viewBox="0 0 55 32"><path fill="#939393" style="fill:var(--color1,#939393)" d="M27.691 32 55.424 0H0l27.691 32z"/></symbol><symbol id="icon-barcode" viewBox="0 0 48 32"><path d="M0 0h5.32v32H0V0zM13.4 0h5.34v32H13.4V0zM21.48 0h5.34v32h-5.34V0zM40.08 0H48v32h-7.92V0zM8.08 0h2.58v32H8.08V0zM29.4 0H32v32h-2.6V0zM34.74 0h2.58v32h-2.58V0z"/></symbol><symbol id="icon-map" viewBox="0 0 21 32"><path fill="#fff" style="fill:var(--color3,#fff)" d="M10.667 0C4.765 0 0 4.978 0 11.093 0 18.809 10.667 32 10.667 32s10.667-13.582 10.667-20.907C21.334 4.977 16.534 0 10.667 0zm3.2 14.364a4.456 4.456 0 0 1-3.2 1.387 4.473 4.473 0 0 1-3.236-1.387c-1.778-1.849-1.778-4.871 0-6.72a4.435 4.435 0 0 1 3.236-1.387c1.209 0 2.347.498 3.2 1.387 1.778 1.849 1.778 4.871 0 6.72z"/></symbol><symbol id="icon-logo" viewBox="0 0 64 32"><path fill="#fff" style="fill:var(--color1,#fff)" d="M20.005 24.179c-.604-1.672-1.844-2.502-3.721-2.502h-.593v10.321h.593c1.456 0 2.524-.572 3.214-1.715.582-.981.874-2.222.874-3.731 0-.895-.129-1.682-.367-2.373zM9.846 24.308c.604 1.672 1.844 2.513 3.71 2.513h.593V16.489h-.593c-1.445 0-2.513.572-3.203 1.715-.582.981-.874 2.222-.874 3.731 0 .895.119 1.682.367 2.373zM0 .011h7.873v2.728H2.826v1.37h4.195v2.599H2.826v1.38h5.047v2.728H0V.01zM11.831 0h10.191l-5.09 11.043L11.831 0zm5.101 9.674L21.138.572h-8.401l4.195 9.102zM26.088.011h7.883v2.728h-5.058v1.37h4.195v2.599h-4.195v1.38h5.058v2.728h-7.883V.01zM38.813 10.806V0h.604l7.549 7.344V0h.582v10.806h-8.735zM55.788 10.817V2.739h-4.077V.011h8.725v2.728h-4.087v8.078h-.561zM4.637 18.646c.69 0 1.229.108 1.628.313a2.72 2.72 0 0 1 1.132 1.025c.27.431.399.949.399 1.456s-.14.992-.41 1.413c-.27.431-.647.776-1.1 1.014a3.117 3.117 0 0 1 1.413 1.025c.377.464.582 1.046.572 1.65a2.745 2.745 0 0 1-.41 1.477c-.27.453-.647.82-1.1 1.068a2.658 2.658 0 0 1-.755.28c-.28.065-.658.097-1.122.097H.106V18.647h4.529zM37.153 29.463v-8.078h-4.087v-2.739h8.735v2.739h-4.087v8.078h-.561zM44.734 18.646h7.873v2.739H47.56v1.359h4.195v2.599H47.56v1.38h5.047v2.739h-7.873V18.645zM64.276 29.463h-8.315V18.646h4.217c.895 0 1.628.162 2.2.485.539.291.992.733 1.305 1.273s.475 1.165.464 1.79a3.393 3.393 0 0 1-.744 2.168 3.524 3.524 0 0 1-1.877 1.262l2.75 3.839zm-7.744-9.868v5.576h4.001l-4.001-5.576zm0 9.286h6.654l-2.265-3.149-.485.011h-3.904v3.138zm.41-9.663 4.228 5.91a3.016 3.016 0 0 0 1.726-1.046c.442-.528.69-1.197.679-1.887a2.893 2.893 0 0 0-.421-1.553 2.758 2.758 0 0 0-1.175-1.078c-.464-.226-1.057-.345-1.79-.345h-3.246zM22.852 28.676c-.809-.712-1.219-1.769-1.208-3.192h2.534c-.011.593.173 1.035.528 1.348.367.313.874.464 1.521.464.539 0 .971-.086 1.273-.259a.866.866 0 0 0 .475-.809c0-.302-.162-.518-.475-.647a5.005 5.005 0 0 0-.938-.291c-.313-.054-.507-.097-.582-.108a12.354 12.354 0 0 1-2.06-.561 3.669 3.669 0 0 1-1.467-1.014c-.388-.453-.582-1.057-.582-1.801s.194-1.38.582-1.909a3.598 3.598 0 0 1 1.575-1.165 5.687 5.687 0 0 1 2.157-.388c.938 0 1.758.173 2.448.528.69.345 1.229.884 1.618 1.596.183.302.313.636.356.981.043.313.065.615.065.927h-2.534c0-.561-.14-.971-.442-1.229-.302-.27-.766-.399-1.402-.399-.507 0-.895.086-1.175.259-.28.183-.421.421-.421.723 0 .324.183.572.561.723.453.183.927.324 1.413.421.927.183 1.661.367 2.178.539.528.173.992.485 1.359.906.388.442.572 1.046.572 1.833 0 .744-.205 1.391-.615 1.93-.421.539-.96.949-1.639 1.229a5.716 5.716 0 0 1-2.2.431c-1.499 0-2.664-.356-3.473-1.068z"/></symbol></defs></svg>