<svg aria-hidden="true" style="position: absolute; width: 0; height: 0; overflow: hidden;" version="1.1" xmlns="http://www.w3.org/2000/svg" xmlns:xlink="http://www.w3.org/1999/xlink">
<defs>
<symbol id="icon-search" viewBox="0 0 32 32">
<path fill="#939393" style="fill: var(--color1, #939393)" d="M4 4c2.613-2.587 6.053-4 9.733-4 3.653 0 7.12 1.413 9.707 4 2.587 2.613 4.027 6.053 4.027 9.733 0 3.36-1.2 6.507-3.387 9.013l7.627 7.627c0.373 0.373 0.373 0.96 0 1.333-0.187 0.187-0.427 0.293-0.667 0.293s-0.48-0.107-0.667-0.293l-7.627-7.627c-2.507 2.187-5.653 3.387-9.013 3.387-3.68 0-7.12-1.44-9.733-4.027-2.587-2.587-4-6.053-4-9.707 0-3.68 1.413-7.12 4-9.733zM5.333 22.107c4.64 4.64 12.16 4.64 16.773 0 4.64-4.613 4.64-12.133 0-16.773-2.293-2.32-5.333-3.467-8.373-3.467s-6.080 1.147-8.4 3.467c-4.613 4.64-4.613 12.16 0 16.773z"></path>
</symbol>
<symbol id="icon-close" viewBox="0 0 32 32">
<path fill="#4c00fe" style="fill: var(--color2, #4c00fe)" d="M1.638 32c-0.414 0-0.847-0.169-1.167-0.489-0.64-0.64-0.64-1.694 0-2.334l28.706-28.706c0.64-0.64 1.694-0.64 2.334 0s0.64 1.694 0 2.334l-28.706 28.706c-0.32 0.32-0.753 0.489-1.167 0.489z"></path>
<path fill="#4c00fe" style="fill: var(--color2, #4c00fe)" d="M30.344 32c-0.414 0-0.847-0.169-1.167-0.489l-28.706-28.706c-0.64-0.64-0.64-1.694 0-2.334s1.694-0.64 2.334 0l28.706 28.706c0.64 0.64 0.64 1.694 0 2.334-0.32 0.32-0.753 0.489-1.167 0.489z"></path>
</symbol>
<symbol id="icon-Polygon" viewBox="0 0 43 32">
<path fill="#939393" style="fill: var(--color1, #939393)" d="M21.657 15.484l13.419-15.484h-26.818l13.399 15.484z"></path>
</symbol>
<symbol id="icon-barcode" viewBox="0 0 48 32">
<path d="M0 0h5.32v32h-5.32v-32z"></path>
<path d="M13.4 0h5.34v32h-5.34v-32z"></path>
<path d="M21.48 0h5.34v32h-5.34v-32z"></path>
<path d="M40.080 0h7.92v32h-7.92v-32z"></path>
<path d="M8.080 0h2.58v32h-2.58v-32z"></path>
<path d="M29.4 0h2.6v32h-2.6v-32z"></path>
<path d="M34.74 0h2.58v32h-2.58v-32z"></path>
</symbol>
<symbol id="icon-map" viewBox="0 0 21 32">
<path fill="#fff" style="fill: var(--color3, #fff)" d="M10.667 0c-5.902 0-10.667 4.978-10.667 11.093 0 7.716 10.667 20.907 10.667 20.907s10.667-13.582 10.667-20.907c0-6.116-4.8-11.093-10.667-11.093zM13.867 14.364c-0.889 0.924-2.062 1.387-3.2 1.387-1.173 0-2.347-0.462-3.236-1.387-1.778-1.849-1.778-4.871 0-6.72 0.853-0.889 1.991-1.387 3.236-1.387 1.209 0 2.347 0.498 3.2 1.387 1.778 1.849 1.778 4.871 0 6.72z"></path>
</symbol>
</defs>
</svg>
