<svg aria-hidden="true" style="position: absolute; width: 0; height: 0; overflow: hidden;" version="1.1" xmlns="http://www.w3.org/2000/svg" xmlns:xlink="http://www.w3.org/1999/xlink">
<defs>
<symbol id="icon-search" viewBox="0 0 32 32">
<path fill="#939393" style="fill: var(--color1, #939393)" d="M4 4c2.613-2.587 6.053-4 9.733-4 3.653 0 7.12 1.413 9.707 4 2.587 2.613 4.027 6.053 4.027 9.733 0 3.36-1.2 6.507-3.387 9.013l7.627 7.627c0.373 0.373 0.373 0.96 0 1.333-0.187 0.187-0.427 0.293-0.667 0.293s-0.48-0.107-0.667-0.293l-7.627-7.627c-2.507 2.187-5.653 3.387-9.013 3.387-3.68 0-7.12-1.44-9.733-4.027-2.587-2.587-4-6.053-4-9.707 0-3.68 1.413-7.12 4-9.733zM5.333 22.107c4.64 4.64 12.16 4.64 16.773 0 4.64-4.613 4.64-12.133 0-16.773-2.293-2.32-5.333-3.467-8.373-3.467s-6.080 1.147-8.4 3.467c-4.613 4.64-4.613 12.16 0 16.773z"></path>
</symbol>
<symbol id="icon-close" viewBox="0 0 32 32">
<path fill="#4c00fe" style="fill: var(--color2, #4c00fe)" d="M1.638 32c-0.414 0-0.847-0.169-1.167-0.489-0.64-0.64-0.64-1.694 0-2.334l28.706-28.706c0.64-0.64 1.694-0.64 2.334 0s0.64 1.694 0 2.334l-28.706 28.706c-0.32 0.32-0.753 0.489-1.167 0.489z"></path>
<path fill="#4c00fe" style="fill: var(--color2, #4c00fe)" d="M30.344 32c-0.414 0-0.847-0.169-1.167-0.489l-28.706-28.706c-0.64-0.64-0.64-1.694 0-2.334s1.694-0.64 2.334 0l28.706 28.706c0.64 0.64 0.64 1.694 0 2.334-0.32 0.32-0.753 0.489-1.167 0.489z"></path>
</symbol>
<symbol id="icon-Polygon" viewBox="0 0 55 32">
<path fill="#939393" style="fill: var(--color1, #939393)" d="M27.691 32l27.733-32h-55.424l27.691 32z"></path>
</symbol>
<symbol id="icon-barcode" viewBox="0 0 48 32">
<path d="M0 0h5.32v32h-5.32v-32z"></path>
<path d="M13.4 0h5.34v32h-5.34v-32z"></path>
<path d="M21.48 0h5.34v32h-5.34v-32z"></path>
<path d="M40.080 0h7.92v32h-7.92v-32z"></path>
<path d="M8.080 0h2.58v32h-2.58v-32z"></path>
<path d="M29.4 0h2.6v32h-2.6v-32z"></path>
<path d="M34.74 0h2.58v32h-2.58v-32z"></path>
</symbol>
<symbol id="icon-map" viewBox="0 0 21 32">
<path fill="#fff" style="fill: var(--color3, #fff)" d="M10.667 0c-5.902 0-10.667 4.978-10.667 11.093 0 7.716 10.667 20.907 10.667 20.907s10.667-13.582 10.667-20.907c0-6.116-4.8-11.093-10.667-11.093zM13.867 14.364c-0.889 0.924-2.062 1.387-3.2 1.387-1.173 0-2.347-0.462-3.236-1.387-1.778-1.849-1.778-4.871 0-6.72 0.853-0.889 1.991-1.387 3.236-1.387 1.209 0 2.347 0.498 3.2 1.387 1.778 1.849 1.778 4.871 0 6.72z"></path>
</symbol>
<symbol id="icon-logo" viewBox="0 0 64 32">
<path fill="#fff" style="fill: var(--color1, #fff)" d="M20.005 24.179c-0.604-1.672-1.844-2.502-3.721-2.502h-0.593v10.321h0.593c1.456 0 2.524-0.572 3.214-1.715 0.582-0.981 0.874-2.222 0.874-3.731 0-0.895-0.129-1.682-0.367-2.373z"></path>
<path fill="#fff" style="fill: var(--color1, #fff)" d="M9.846 24.308c0.604 1.672 1.844 2.513 3.71 2.513h0.593v-10.332h-0.593c-1.445 0-2.513 0.572-3.203 1.715-0.582 0.981-0.874 2.222-0.874 3.731 0 0.895 0.119 1.682 0.367 2.373z"></path>
<path fill="#fff" style="fill: var(--color1, #fff)" d="M0 0.011h7.873v2.728h-5.047v1.37h4.195v2.599h-4.195v1.38h5.047v2.728h-7.873v-10.806z"></path>
<path fill="#fff" style="fill: var(--color1, #fff)" d="M11.831 0h10.191l-5.090 11.043-5.101-11.043zM16.932 9.674l4.206-9.102h-8.401l4.195 9.102z"></path>
<path fill="#fff" style="fill: var(--color1, #fff)" d="M26.088 0.011h7.883v2.728h-5.058v1.37h4.195v2.599h-4.195v1.38h5.058v2.728h-7.883v-10.806z"></path>
<path fill="#fff" style="fill: var(--color1, #fff)" d="M38.813 10.806v-10.806h0.604l7.549 7.344v-7.344h0.582v10.806h-8.735z"></path>
<path fill="#fff" style="fill: var(--color1, #fff)" d="M55.788 10.817v-8.078h-4.077v-2.728h8.725v2.728h-4.087v8.078h-0.561z"></path>
<path fill="#fff" style="fill: var(--color1, #fff)" d="M4.637 18.646c0.69 0 1.229 0.108 1.628 0.313 0.464 0.226 0.863 0.582 1.132 1.025 0.27 0.431 0.399 0.949 0.399 1.456s-0.14 0.992-0.41 1.413c-0.27 0.431-0.647 0.776-1.1 1.014 0.561 0.194 1.046 0.561 1.413 1.025 0.377 0.464 0.582 1.046 0.572 1.65 0.011 0.518-0.14 1.035-0.41 1.477-0.27 0.453-0.647 0.82-1.1 1.068-0.237 0.129-0.485 0.226-0.755 0.28-0.28 0.065-0.658 0.097-1.122 0.097h-4.778v-10.817h4.529z"></path>
<path fill="#fff" style="fill: var(--color1, #fff)" d="M37.153 29.463v-8.078h-4.087v-2.739h8.735v2.739h-4.087v8.078h-0.561z"></path>
<path fill="#fff" style="fill: var(--color1, #fff)" d="M44.734 18.646h7.873v2.739h-5.047v1.359h4.195v2.599h-4.195v1.38h5.047v2.739h-7.873v-10.817z"></path>
<path fill="#fff" style="fill: var(--color1, #fff)" d="M64.276 29.463h-8.315v-10.817h4.217c0.895 0 1.628 0.162 2.2 0.485 0.539 0.291 0.992 0.733 1.305 1.273s0.475 1.165 0.464 1.79c0.011 0.787-0.248 1.542-0.744 2.168-0.464 0.615-1.132 1.057-1.877 1.262l2.75 3.839zM56.532 19.595v5.576h4.001l-4.001-5.576zM56.532 28.881h6.654l-2.265-3.149-0.485 0.011h-3.904v3.138zM56.942 19.218l4.228 5.91c0.679-0.14 1.283-0.507 1.726-1.046 0.442-0.528 0.69-1.197 0.679-1.887 0.011-0.55-0.14-1.089-0.421-1.553-0.28-0.475-0.69-0.841-1.175-1.078-0.464-0.226-1.057-0.345-1.79-0.345h-3.246z"></path>
<path fill="#fff" style="fill: var(--color1, #fff)" d="M22.852 28.676c-0.809-0.712-1.219-1.769-1.208-3.192h2.534c-0.011 0.593 0.173 1.035 0.528 1.348 0.367 0.313 0.874 0.464 1.521 0.464 0.539 0 0.971-0.086 1.273-0.259 0.313-0.173 0.475-0.442 0.475-0.809 0-0.302-0.162-0.518-0.475-0.647-0.302-0.129-0.625-0.226-0.938-0.291-0.313-0.054-0.507-0.097-0.582-0.108-0.701-0.129-1.391-0.313-2.060-0.561-0.572-0.216-1.068-0.561-1.467-1.014-0.388-0.453-0.582-1.057-0.582-1.801s0.194-1.38 0.582-1.909c0.399-0.518 0.917-0.906 1.575-1.165 0.69-0.27 1.424-0.399 2.157-0.388 0.938 0 1.758 0.173 2.448 0.528 0.69 0.345 1.229 0.884 1.618 1.596 0.183 0.302 0.313 0.636 0.356 0.981 0.043 0.313 0.065 0.615 0.065 0.927h-2.534c0-0.561-0.14-0.971-0.442-1.229-0.302-0.27-0.766-0.399-1.402-0.399-0.507 0-0.895 0.086-1.175 0.259-0.28 0.183-0.421 0.421-0.421 0.723 0 0.324 0.183 0.572 0.561 0.723 0.453 0.183 0.927 0.324 1.413 0.421 0.927 0.183 1.661 0.367 2.178 0.539 0.528 0.173 0.992 0.485 1.359 0.906 0.388 0.442 0.572 1.046 0.572 1.833 0 0.744-0.205 1.391-0.615 1.93-0.421 0.539-0.96 0.949-1.639 1.229-0.701 0.291-1.445 0.431-2.2 0.431-1.499 0-2.664-0.356-3.473-1.068z"></path>
</symbol>
</defs>
</svg>
